# xmcd
# 
# Track frame offsets:
#     150
#     13469
#     44294
#     82920
#     118680
#     161328
#     206932
#     235540
# 
# Disc length: 3494
# 
# Revision: 1
# Processed by: cddbd v1.5.2PL0 Copyright (c) Steve Scherf et al.
# Submitted via: BonkEnc v1.0.8
# 
DISCID=600da408
DTITLE=Rudresh Mahanthappa, Raz Abassi, Dan Weiss - Apti
DYEAR=2008
DGENRE=Contemporary Jazz
TTITLE0=Looking Out,Looking In
TTITLE1=Apti
TTITLE2=Vandanaa Trayee
TTITLE3=Adana
TTITLE4=Palika Market
TTITLE5=IIT
TTITLE6=Baladhi
TTITLE7=You Talk Too Much
EXTD=YEAR: 2008
EXTT0=
EXTT1=
EXTT2=
EXTT3=
EXTT4=
EXTT5=
EXTT6=
EXTT7=
PLAYORDER=
